<svg width="1074" height="270" viewBox="0 0 1074 270" fill="none" xmlns="http://www.w3.org/2000/svg">
<path d="M27.186 234.46C25.7413 234.46 24.4937 233.935 23.443 232.884C22.3923 231.833 21.867 230.586 21.867 229.141V65.434C21.867 63.9893 22.3923 62.7417 23.443 61.691C24.4937 60.6403 25.7413 60.115 27.186 60.115H53.584C55.0287 60.115 56.2107 60.5747 57.13 61.494C58.1807 62.4133 58.706 63.5953 58.706 65.04C58.706 66.3533 58.1807 67.5353 57.13 68.586C56.2107 69.5053 55.0287 69.965 53.584 69.965H33.884V224.61H53.584C55.0287 224.61 56.2107 225.07 57.13 225.989C58.1807 227.04 58.706 228.222 58.706 229.535C58.706 230.848 58.1807 231.965 57.13 232.884C56.2107 233.935 55.0287 234.46 53.584 234.46H27.186Z" fill="#C9C9CC"/>
<path d="M309.654 235.664C308.216 235.664 306.975 235.141 305.93 234.096C304.884 233.181 304.362 232.07 304.362 230.764C304.362 229.457 304.884 228.281 305.93 227.236C306.975 226.321 308.216 225.864 309.654 225.864H329.254V72.0036H309.654C308.216 72.0036 306.975 71.5462 305.93 70.6316C304.884 69.5863 304.362 68.4103 304.362 67.1036C304.362 65.6663 304.884 64.4903 305.93 63.5756C306.975 62.6609 308.216 62.2036 309.654 62.2036H335.918C337.355 62.2036 338.596 62.7263 339.642 63.7716C340.687 64.8169 341.21 66.0583 341.21 67.4956V230.372C341.21 231.809 340.687 233.05 339.642 234.096C338.596 235.141 337.355 235.664 335.918 235.664H309.654Z" fill="#C9C9CC"/>
<path d="M119.237 80.25V210H98.7944V80.25H119.237ZM176.002 118.601L136.216 162.695L114.422 184.996L109.1 167.764L125.572 147.406L151.421 118.601H176.002ZM155.813 210L126.164 167.088L139.003 152.812L179.381 210H155.813ZM189.011 80.25H209.369V190.487L207.426 210H189.011V80.25ZM269.007 163.456V165.229C269.007 171.987 268.247 178.21 266.726 183.898C265.262 189.529 263.009 194.429 259.968 198.596C256.984 202.764 253.267 206.002 248.818 208.311C244.425 210.563 239.329 211.689 233.528 211.689C227.84 211.689 222.885 210.619 218.661 208.479C214.438 206.34 210.89 203.299 208.018 199.356C205.202 195.414 202.921 190.712 201.175 185.25C199.43 179.787 198.191 173.761 197.458 167.172V161.513C198.191 154.868 199.43 148.842 201.175 143.436C202.921 137.973 205.202 133.271 208.018 129.329C210.89 125.33 214.409 122.261 218.577 120.121C222.8 117.981 227.728 116.911 233.359 116.911C239.216 116.911 244.369 118.037 248.818 120.29C253.323 122.543 257.068 125.753 260.053 129.92C263.037 134.031 265.262 138.93 266.726 144.618C268.247 150.306 269.007 156.585 269.007 163.456ZM248.649 165.229V163.456C248.649 159.345 248.311 155.487 247.635 151.883C246.959 148.222 245.833 145.012 244.256 142.253C242.736 139.493 240.652 137.325 238.005 135.749C235.415 134.115 232.177 133.299 228.291 133.299C224.687 133.299 221.59 133.918 218.999 135.157C216.409 136.396 214.24 138.086 212.495 140.226C210.749 142.366 209.369 144.843 208.355 147.659C207.398 150.475 206.75 153.516 206.413 156.782V172.072C206.919 176.295 207.989 180.181 209.623 183.729C211.312 187.221 213.677 190.036 216.718 192.176C219.759 194.26 223.673 195.302 228.46 195.302C232.233 195.302 235.415 194.542 238.005 193.021C240.596 191.5 242.651 189.389 244.172 186.686C245.749 183.926 246.875 180.716 247.551 177.056C248.283 173.395 248.649 169.453 248.649 165.229Z" fill="#F79211"/>
<path d="M419.013 168.025L414.399 172.309V184.394H404.218V128.144H414.399V160.298L417.475 156.782L428.424 144.77H440.656L425.714 161.286L442.743 184.394H430.255L419.013 168.025ZM484.783 164.985C484.783 166.89 484.648 168.696 484.38 170.405C484.111 172.09 483.721 173.652 483.208 175.093C482.646 176.68 481.902 178.12 480.974 179.414C480.071 180.708 478.996 181.782 477.751 182.637C476.628 183.442 475.359 184.053 473.943 184.468C472.551 184.907 471.013 185.127 469.328 185.127C467.79 185.127 466.387 184.932 465.117 184.541C463.872 184.175 462.749 183.625 461.748 182.893C461.211 182.527 460.71 182.124 460.246 181.684C459.783 181.221 459.343 180.72 458.928 180.183L458.452 184.394H449.297V128.144H459.477V148.359C459.966 147.798 460.491 147.285 461.052 146.821C461.614 146.333 462.212 145.918 462.846 145.576C463.75 145.063 464.726 144.685 465.776 144.441C466.85 144.172 468.01 144.038 469.255 144.038C470.964 144.038 472.527 144.258 473.943 144.697C475.383 145.137 476.665 145.771 477.788 146.601C478.691 147.236 479.509 148.005 480.241 148.909C480.974 149.787 481.621 150.752 482.182 151.802C483.061 153.486 483.708 155.378 484.123 157.478C484.563 159.578 484.783 161.824 484.783 164.216V164.985ZM474.602 164.216C474.602 163.166 474.553 162.153 474.455 161.177C474.358 160.2 474.199 159.285 473.979 158.43C473.711 157.429 473.357 156.538 472.917 155.757C472.502 154.951 471.867 154.219 471.013 153.559C470.451 153.144 469.817 152.839 469.109 152.644C468.401 152.424 467.595 152.314 466.692 152.314C465.471 152.314 464.397 152.485 463.469 152.827C462.541 153.169 461.748 153.669 461.089 154.328C460.771 154.646 460.478 155.012 460.21 155.427C459.941 155.818 459.697 156.245 459.477 156.709V172.493C459.77 173.103 460.1 173.664 460.466 174.177C460.857 174.665 461.308 175.093 461.821 175.459C462.431 175.923 463.139 176.277 463.945 176.521C464.775 176.765 465.715 176.887 466.765 176.887C467.668 176.887 468.486 176.777 469.219 176.557C469.951 176.338 470.586 176.033 471.123 175.642C471.88 175.105 472.49 174.409 472.954 173.555C473.442 172.676 473.808 171.687 474.053 170.588C474.248 169.783 474.382 168.904 474.455 167.952C474.553 166.999 474.602 166.011 474.602 164.985V164.216ZM518.802 184.394C518.558 183.906 518.35 183.345 518.179 182.71C518.008 182.075 517.862 181.404 517.74 180.696C517.178 181.306 516.531 181.88 515.799 182.417C515.066 182.954 514.261 183.418 513.382 183.808C512.479 184.224 511.49 184.541 510.416 184.761C509.341 185.005 508.182 185.127 506.937 185.127C504.91 185.127 503.042 184.834 501.333 184.248C499.649 183.662 498.196 182.844 496.976 181.794C495.755 180.745 494.803 179.499 494.119 178.059C493.436 176.594 493.094 175.007 493.094 173.298C493.094 171.101 493.521 169.16 494.375 167.475C495.23 165.766 496.512 164.363 498.221 163.264C499.759 162.263 501.651 161.506 503.897 160.994C506.167 160.456 508.768 160.188 511.697 160.188H517.374V157.844C517.374 156.916 517.227 156.086 516.934 155.354C516.641 154.597 516.202 153.95 515.616 153.413C515.005 152.851 514.236 152.424 513.309 152.131C512.405 151.814 511.343 151.655 510.123 151.655C509.048 151.655 508.121 151.789 507.339 152.058C506.558 152.302 505.923 152.656 505.435 153.12C504.996 153.535 504.666 154.036 504.446 154.621C504.251 155.207 504.153 155.854 504.153 156.562H493.973C493.973 154.878 494.339 153.279 495.071 151.765C495.828 150.251 496.927 148.921 498.367 147.773C499.783 146.626 501.517 145.723 503.567 145.063C505.643 144.38 508.011 144.038 510.672 144.038C513.064 144.038 515.286 144.331 517.337 144.917C519.412 145.503 521.207 146.37 522.72 147.517C524.234 148.664 525.418 150.117 526.272 151.875C527.127 153.608 527.554 155.622 527.554 157.917V174.91C527.554 177.034 527.688 178.791 527.957 180.183C528.226 181.575 528.616 182.771 529.129 183.772V184.394H518.802ZM509.097 177.253C510.123 177.253 511.075 177.131 511.954 176.887C512.833 176.643 513.626 176.326 514.334 175.935C515.042 175.544 515.652 175.105 516.165 174.617C516.678 174.104 517.081 173.591 517.374 173.078V166.267H512.173C510.586 166.267 509.231 166.426 508.108 166.743C506.985 167.036 506.07 167.451 505.362 167.988C504.654 168.55 504.129 169.221 503.787 170.002C503.445 170.759 503.274 171.589 503.274 172.493C503.274 173.201 503.396 173.86 503.641 174.47C503.909 175.056 504.288 175.557 504.776 175.972C505.264 176.362 505.862 176.68 506.57 176.924C507.303 177.143 508.145 177.253 509.097 177.253ZM567.469 144.038C569.008 144.038 570.424 144.148 571.717 144.368C573.036 144.563 574.098 144.783 574.904 145.027L573.402 155.171C572.059 154.853 570.68 154.621 569.264 154.475C567.872 154.304 566.542 154.219 565.272 154.219C563.954 154.219 562.758 154.341 561.683 154.585C560.633 154.805 559.694 155.146 558.863 155.61C557.862 156.147 557.008 156.831 556.3 157.661C555.592 158.491 555.006 159.468 554.542 160.591V184.394H544.362V144.77H553.846L554.249 150.373L554.322 151.252C555.934 149.006 557.862 147.248 560.109 145.979C562.355 144.685 564.808 144.038 567.469 144.038ZM608.74 184.394C608.495 183.906 608.288 183.345 608.117 182.71C607.946 182.075 607.8 181.404 607.678 180.696C607.116 181.306 606.469 181.88 605.737 182.417C605.004 182.954 604.199 183.418 603.32 183.808C602.416 184.224 601.428 184.541 600.353 184.761C599.279 185.005 598.12 185.127 596.874 185.127C594.848 185.127 592.98 184.834 591.271 184.248C589.587 183.662 588.134 182.844 586.913 181.794C585.693 180.745 584.741 179.499 584.057 178.059C583.373 176.594 583.032 175.007 583.032 173.298C583.032 171.101 583.459 169.16 584.313 167.475C585.168 165.766 586.45 164.363 588.159 163.264C589.697 162.263 591.589 161.506 593.835 160.994C596.105 160.456 598.705 160.188 601.635 160.188H607.311V157.844C607.311 156.916 607.165 156.086 606.872 155.354C606.579 154.597 606.14 153.95 605.554 153.413C604.943 152.851 604.174 152.424 603.246 152.131C602.343 151.814 601.281 151.655 600.06 151.655C598.986 151.655 598.058 151.789 597.277 152.058C596.496 152.302 595.861 152.656 595.373 153.12C594.933 153.535 594.604 154.036 594.384 154.621C594.189 155.207 594.091 155.854 594.091 156.562H583.911C583.911 154.878 584.277 153.279 585.009 151.765C585.766 150.251 586.865 148.921 588.305 147.773C589.721 146.626 591.454 145.723 593.505 145.063C595.58 144.38 597.949 144.038 600.61 144.038C603.002 144.038 605.224 144.331 607.275 144.917C609.35 145.503 611.144 146.37 612.658 147.517C614.172 148.664 615.356 150.117 616.21 151.875C617.065 153.608 617.492 155.622 617.492 157.917V174.91C617.492 177.034 617.626 178.791 617.895 180.183C618.163 181.575 618.554 182.771 619.067 183.772V184.394H608.74ZM599.035 177.253C600.06 177.253 601.013 177.131 601.891 176.887C602.77 176.643 603.564 176.326 604.272 175.935C604.98 175.544 605.59 175.105 606.103 174.617C606.616 174.104 607.018 173.591 607.311 173.078V166.267H602.111C600.524 166.267 599.169 166.426 598.046 166.743C596.923 167.036 596.008 167.451 595.3 167.988C594.592 168.55 594.067 169.221 593.725 170.002C593.383 170.759 593.212 171.589 593.212 172.493C593.212 173.201 593.334 173.86 593.579 174.47C593.847 175.056 594.225 175.557 594.714 175.972C595.202 176.362 595.8 176.68 596.508 176.924C597.241 177.143 598.083 177.253 599.035 177.253ZM628.953 184.394V144.77H638.181L638.804 150.264C639.316 149.531 639.878 148.86 640.488 148.249C641.099 147.639 641.746 147.09 642.429 146.601C643.601 145.771 644.883 145.137 646.275 144.697C647.666 144.258 649.143 144.038 650.706 144.038C652.708 144.038 654.539 144.331 656.199 144.917C657.859 145.503 659.299 146.431 660.52 147.7C661.716 148.994 662.644 150.654 663.303 152.681C663.987 154.682 664.329 157.124 664.329 160.005V184.394H654.148V160.151C654.148 158.589 653.965 157.307 653.599 156.306C653.257 155.281 652.756 154.475 652.097 153.889C651.438 153.303 650.645 152.9 649.717 152.681C648.789 152.436 647.739 152.314 646.567 152.314C645.591 152.314 644.688 152.424 643.858 152.644C643.052 152.864 642.332 153.193 641.697 153.633C641.184 153.95 640.72 154.328 640.305 154.768C639.89 155.207 639.512 155.696 639.17 156.233V184.394H628.953ZM672.53 164.216C672.53 161.335 672.945 158.674 673.775 156.233C674.605 153.767 675.826 151.631 677.437 149.824C679.024 148.017 680.965 146.601 683.26 145.576C685.579 144.551 688.228 144.038 691.207 144.038C694.185 144.038 696.834 144.551 699.154 145.576C701.473 146.601 703.438 148.017 705.05 149.824C706.637 151.631 707.845 153.767 708.675 156.233C709.505 158.674 709.92 161.335 709.92 164.216V164.985C709.92 167.891 709.505 170.576 708.675 173.042C707.845 175.483 706.637 177.607 705.05 179.414C703.463 181.221 701.51 182.637 699.19 183.662C696.871 184.663 694.234 185.163 691.28 185.163C688.302 185.163 685.64 184.663 683.297 183.662C680.977 182.637 679.024 181.221 677.437 179.414C675.826 177.607 674.605 175.483 673.775 173.042C672.945 170.576 672.53 167.891 672.53 164.985V164.216ZM682.711 164.985C682.711 166.645 682.869 168.208 683.187 169.673C683.504 171.113 684.005 172.37 684.688 173.445C685.372 174.543 686.251 175.41 687.325 176.045C688.424 176.68 689.742 176.997 691.28 176.997C692.769 176.997 694.051 176.68 695.125 176.045C696.199 175.41 697.078 174.543 697.762 173.445C698.421 172.37 698.909 171.113 699.227 169.673C699.544 168.208 699.703 166.645 699.703 164.985V164.216C699.703 162.605 699.544 161.079 699.227 159.639C698.909 158.198 698.421 156.929 697.762 155.83C697.078 154.731 696.199 153.865 695.125 153.23C694.051 152.595 692.745 152.278 691.207 152.278C689.693 152.278 688.399 152.595 687.325 153.23C686.251 153.865 685.372 154.731 684.688 155.83C684.005 156.929 683.504 158.198 683.187 159.639C682.869 161.079 682.711 162.605 682.711 164.216V164.985ZM721.82 184.394L714.716 144.77H724.018L726.984 168.318L727.46 172.09L728.156 168.318L732.44 144.77H739.252L743.537 168.208L744.232 171.98L744.745 168.135L747.675 144.77H757.013L749.909 184.394H740.973L736.615 163.227L735.773 159.199L734.967 163.227L730.756 184.394H721.82ZM789.421 173.518C789.421 172.908 789.275 172.37 788.982 171.907C788.713 171.443 788.225 171.003 787.517 170.588C786.784 170.198 785.82 169.831 784.624 169.49C783.427 169.148 781.914 168.806 780.083 168.464C777.763 168 775.639 167.427 773.711 166.743C771.806 166.035 770.171 165.181 768.803 164.18C767.436 163.203 766.362 162.068 765.581 160.774C764.824 159.48 764.445 157.991 764.445 156.306C764.445 154.67 764.836 153.108 765.617 151.619C766.399 150.129 767.522 148.823 768.987 147.7C770.451 146.577 772.234 145.686 774.333 145.027C776.433 144.368 778.801 144.038 781.438 144.038C784.196 144.038 786.674 144.368 788.872 145.027C791.069 145.661 792.937 146.54 794.475 147.663C795.988 148.811 797.148 150.166 797.954 151.728C798.759 153.291 799.162 154.988 799.162 156.819H788.982C788.982 156.16 788.872 155.549 788.652 154.988C788.432 154.402 788.103 153.877 787.663 153.413C787.053 152.803 786.223 152.314 785.173 151.948C784.148 151.582 782.903 151.399 781.438 151.399C780.193 151.399 779.106 151.521 778.178 151.765C777.251 152.009 776.494 152.351 775.908 152.79C775.371 153.181 774.956 153.645 774.663 154.182C774.394 154.695 774.26 155.244 774.26 155.83C774.26 156.416 774.382 156.965 774.626 157.478C774.87 157.966 775.31 158.406 775.945 158.796C776.555 159.211 777.397 159.59 778.471 159.932C779.546 160.249 780.913 160.53 782.573 160.774C784.966 161.164 787.187 161.665 789.238 162.275C791.289 162.886 793.059 163.667 794.548 164.619C796.037 165.596 797.197 166.78 798.027 168.171C798.882 169.538 799.309 171.174 799.309 173.078C799.309 174.836 798.882 176.46 798.027 177.949C797.197 179.414 796.013 180.683 794.475 181.758C792.912 182.832 791.032 183.674 788.835 184.285C786.638 184.87 784.184 185.163 781.474 185.163C778.496 185.163 775.859 184.773 773.564 183.992C771.294 183.21 769.389 182.185 767.851 180.915C766.313 179.67 765.141 178.254 764.336 176.667C763.554 175.056 763.164 173.445 763.164 171.833H772.868C772.942 172.908 773.235 173.835 773.747 174.617C774.26 175.373 774.919 175.984 775.725 176.448C776.53 176.936 777.446 177.29 778.471 177.51C779.521 177.729 780.595 177.839 781.694 177.839C783.012 177.839 784.16 177.729 785.136 177.51C786.137 177.266 786.955 176.948 787.59 176.557C788.2 176.167 788.652 175.715 788.945 175.203C789.262 174.69 789.421 174.128 789.421 173.518ZM823.733 168.025L819.119 172.309V184.394H808.938V128.144H819.119V160.298L822.195 156.782L833.145 144.77H845.376L830.435 161.286L847.464 184.394H834.976L823.733 168.025ZM856.507 144.77H878.077V176.118H888.807V184.394H856.507V176.118H867.787V153.083H856.507V144.77ZM867.054 134.626C867.054 133.845 867.189 133.125 867.457 132.466C867.75 131.782 868.153 131.196 868.666 130.708C869.178 130.244 869.789 129.878 870.497 129.609C871.229 129.341 872.035 129.206 872.914 129.206C874.72 129.206 876.149 129.719 877.198 130.745C878.273 131.745 878.81 133.039 878.81 134.626C878.81 136.213 878.273 137.519 877.198 138.545C876.149 139.546 874.72 140.046 872.914 140.046C872.035 140.046 871.229 139.912 870.497 139.643C869.789 139.375 869.178 138.996 868.666 138.508C868.153 138.044 867.75 137.483 867.457 136.824C867.189 136.14 867.054 135.408 867.054 134.626ZM909.057 178.498C909.057 176.619 909.679 175.032 910.925 173.738C912.17 172.419 913.903 171.76 916.125 171.76C918.322 171.76 920.043 172.407 921.288 173.701C922.558 174.995 923.193 176.594 923.193 178.498C923.193 180.403 922.546 181.99 921.252 183.259C919.982 184.504 918.273 185.127 916.125 185.127C913.952 185.127 912.231 184.492 910.961 183.223C909.692 181.953 909.057 180.378 909.057 178.498ZM961.277 176.997C962.278 176.997 963.23 176.85 964.133 176.557C965.037 176.265 965.83 175.849 966.514 175.312C967.197 174.775 967.722 174.128 968.088 173.371C968.479 172.615 968.65 171.772 968.601 170.845H978.196C978.245 172.895 977.817 174.8 976.914 176.557C976.035 178.315 974.827 179.829 973.289 181.099C971.75 182.368 969.956 183.369 967.905 184.101C965.879 184.809 963.73 185.163 961.46 185.163C958.384 185.163 955.686 184.651 953.367 183.625C951.047 182.576 949.119 181.147 947.581 179.341C946.018 177.534 944.834 175.422 944.028 173.005C943.247 170.564 942.856 167.952 942.856 165.168V164.07C942.856 161.286 943.247 158.686 944.028 156.269C944.81 153.828 945.981 151.704 947.544 149.897C949.106 148.091 951.035 146.662 953.33 145.613C955.649 144.563 958.335 144.038 961.387 144.038C963.828 144.038 966.086 144.404 968.162 145.137C970.237 145.869 972.031 146.894 973.545 148.213C975.034 149.556 976.194 151.179 977.024 153.083C977.854 154.963 978.245 157.075 978.196 159.419H968.601C968.65 158.442 968.503 157.515 968.162 156.636C967.82 155.757 967.319 155 966.66 154.365C966.001 153.73 965.208 153.23 964.28 152.864C963.352 152.473 962.339 152.278 961.24 152.278C959.629 152.278 958.298 152.607 957.249 153.266C956.199 153.926 955.369 154.805 954.758 155.903C954.124 157.002 953.672 158.259 953.403 159.675C953.159 161.091 953.037 162.556 953.037 164.07V165.168C953.037 166.706 953.159 168.196 953.403 169.636C953.647 171.052 954.087 172.297 954.722 173.371C955.332 174.47 956.162 175.349 957.212 176.008C958.286 176.667 959.641 176.997 961.277 176.997ZM987.313 164.216C987.313 161.335 987.728 158.674 988.558 156.233C989.388 153.767 990.609 151.631 992.22 149.824C993.807 148.017 995.748 146.601 998.043 145.576C1000.36 144.551 1003.01 144.038 1005.99 144.038C1008.97 144.038 1011.62 144.551 1013.94 145.576C1016.26 146.601 1018.22 148.017 1019.83 149.824C1021.42 151.631 1022.63 153.767 1023.46 156.233C1024.29 158.674 1024.7 161.335 1024.7 164.216V164.985C1024.7 167.891 1024.29 170.576 1023.46 173.042C1022.63 175.483 1021.42 177.607 1019.83 179.414C1018.25 181.221 1016.29 182.637 1013.97 183.662C1011.65 184.663 1009.02 185.163 1006.06 185.163C1003.08 185.163 1000.42 184.663 998.079 183.662C995.76 182.637 993.807 181.221 992.22 179.414C990.609 177.607 989.388 175.483 988.558 173.042C987.728 170.576 987.313 167.891 987.313 164.985V164.216ZM997.493 164.985C997.493 166.645 997.652 168.208 997.969 169.673C998.287 171.113 998.787 172.37 999.471 173.445C1000.15 174.543 1001.03 175.41 1002.11 176.045C1003.21 176.68 1004.52 176.997 1006.06 176.997C1007.55 176.997 1008.83 176.68 1009.91 176.045C1010.98 175.41 1011.86 174.543 1012.54 173.445C1013.2 172.37 1013.69 171.113 1014.01 169.673C1014.33 168.208 1014.49 166.645 1014.49 164.985V164.216C1014.49 162.605 1014.33 161.079 1014.01 159.639C1013.69 158.198 1013.2 156.929 1012.54 155.83C1011.86 154.731 1010.98 153.865 1009.91 153.23C1008.83 152.595 1007.53 152.278 1005.99 152.278C1004.48 152.278 1003.18 152.595 1002.11 153.23C1001.03 153.865 1000.15 154.731 999.471 155.83C998.787 156.929 998.287 158.198 997.969 159.639C997.652 161.079 997.493 162.605 997.493 164.216V164.985ZM1040.01 144.77L1040.3 149.568C1041.06 147.859 1042.1 146.516 1043.41 145.539C1044.76 144.538 1046.38 144.038 1048.29 144.038C1049.21 144.038 1050.04 144.148 1050.78 144.368C1051.51 144.587 1052.14 144.929 1052.68 145.393C1053.09 145.735 1053.45 146.15 1053.74 146.638C1054.06 147.102 1054.33 147.639 1054.55 148.249C1054.89 147.663 1055.27 147.139 1055.68 146.675C1056.12 146.186 1056.6 145.771 1057.11 145.43C1057.75 144.99 1058.47 144.648 1059.27 144.404C1060.08 144.16 1060.96 144.038 1061.91 144.038C1063.1 144.038 1064.22 144.258 1065.24 144.697C1066.29 145.137 1067.21 145.832 1067.99 146.785C1068.74 147.761 1069.33 149.018 1069.74 150.557C1070.18 152.07 1070.4 153.926 1070.4 156.123V184.394H1061.14V156.086C1061.14 155.329 1061.05 154.707 1060.88 154.219C1060.74 153.73 1060.53 153.34 1060.26 153.047C1059.99 152.778 1059.67 152.595 1059.31 152.497C1058.97 152.375 1058.61 152.314 1058.25 152.314C1057.86 152.314 1057.5 152.363 1057.18 152.461C1056.89 152.558 1056.61 152.693 1056.34 152.864C1056.12 153.035 1055.93 153.23 1055.76 153.45C1055.58 153.645 1055.44 153.877 1055.32 154.145C1055.32 154.194 1055.32 154.304 1055.32 154.475C1055.32 154.646 1055.32 154.878 1055.32 155.171V184.394H1046.34V156.05C1046.34 155.293 1046.27 154.67 1046.12 154.182C1045.98 153.694 1045.78 153.315 1045.54 153.047C1045.27 152.778 1044.96 152.595 1044.62 152.497C1044.28 152.375 1043.91 152.314 1043.52 152.314C1043.08 152.314 1042.69 152.388 1042.35 152.534C1042.01 152.681 1041.71 152.888 1041.44 153.157C1041.24 153.352 1041.07 153.584 1040.92 153.852C1040.78 154.121 1040.64 154.414 1040.52 154.731V184.394H1031.26V144.77H1040.01Z" fill="#8B8B8B"/>
</svg>
